<svg xmlns="http://www.w3.org/2000/svg" xmlns:xlink="http://www.w3.org/1999/xlink" id="Layer_1" x="0" y="0" version="1.1" viewBox="0 0 24 24" xml:space="preserve" style="enable-background:new 0 0 24 24"><style type="text/css">.st0{fill:#90a4ae}.st1{fill:#f78c6c}</style><path d="M17.8,10.1l5.2,2.3v-5c0-1.2-1-2.2-2.2-2.2H12L9.8,3H3.2C2,3,1,4,1,5.2v13.6c0,1.2,1,2.2,2.2,2h8.3v-7.9	L17.8,10.1z" class="st0"/><path d="M23,12.4l-5.2-2.3l-6.2,2.8v7.9v0.4l6.2,2.8l6.2-2.8v-8.3L23,12.4z M17.8,11.2l4.5,2l-4.5,2l-4.5-2L17.8,11.2z M17.2,22.6l-4.1-1.8l-0.6-0.3v-6.6l4.8,2.1v4.7V22.6z M23,18.6v1.9l-4.8,2.1v-1.8v-4.7l4.8-2.1V18.6z" class="st1"/></svg>